<?xml version="1.0" encoding="UTF-8" standalone="no"?>
<!DOCTYPE svg PUBLIC "-//W3C//DTD SVG 1.1//EN"
 "http://www.w3.org/Graphics/SVG/1.1/DTD/svg11.dtd">
<!-- Generated by graphviz version 2.49.2 (20211016.1639)
 -->
<!-- Title: G Pages: 1 -->
<svg width="258pt" height="131pt"
 viewBox="0.00 0.00 258.00 131.00" xmlns="http://www.w3.org/2000/svg" xmlns:xlink="http://www.w3.org/1999/xlink">
<g id="graph0" class="graph" transform="scale(1 1) rotate(0) translate(4 127)">
<title>G</title>
<polygon fill="white" stroke="transparent" points="-4,4 -4,-127 254,-127 254,4 -4,4"/>
<!-- [] -->
<g id="node1" class="node">
<title>[]</title>
<ellipse fill="#a6cee3" stroke="#a6cee3" cx="27" cy="-105" rx="27" ry="18"/>
<text text-anchor="middle" x="27" y="-101.3" font-family="Times,serif" font-size="14.00">[]</text>
</g>
<!-- [2] -->
<g id="node2" class="node">
<title>[2]</title>
<ellipse fill="#a6cee3" stroke="#a6cee3" cx="100" cy="-18" rx="27" ry="18"/>
<text text-anchor="middle" x="100" y="-14.3" font-family="Times,serif" font-size="14.00">[2]</text>
</g>
<!-- [2]&#45;&gt;[2] -->
<g id="edge2" class="edge">
<title>[2]&#45;&gt;[2]</title>
<path fill="none" stroke="#377eb8" d="M124.53,-25.75C135.51,-26.49 145,-23.91 145,-18 145,-14.03 140.72,-11.56 134.57,-10.59"/>
<polygon fill="#377eb8" stroke="#377eb8" points="134.65,-7.09 124.53,-10.25 134.41,-14.09 134.65,-7.09"/>
<text text-anchor="middle" x="148.5" y="-14.3" font-family="Times,serif" font-size="14.00">b</text>
</g>
<!-- [1] -->
<g id="node3" class="node">
<title>[1]</title>
<ellipse fill="#a6cee3" stroke="#a6cee3" cx="223" cy="-105" rx="27" ry="18"/>
<text text-anchor="middle" x="223" y="-101.3" font-family="Times,serif" font-size="14.00">[1]</text>
</g>
<!-- [1,2] -->
<g id="node4" class="node">
<title>[1,2]</title>
<ellipse fill="#a6cee3" stroke="#a6cee3" cx="100" cy="-105" rx="27.9" ry="18"/>
<text text-anchor="middle" x="100" y="-101.3" font-family="Times,serif" font-size="14.00">[1,2]</text>
</g>
<!-- [1,2]&#45;&gt;[2] -->
<g id="edge4" class="edge">
<title>[1,2]&#45;&gt;[2]</title>
<path fill="none" stroke="#377eb8" d="M100,-86.8C100,-75.16 100,-59.55 100,-46.24"/>
<polygon fill="#377eb8" stroke="#377eb8" points="103.5,-46.18 100,-36.18 96.5,-46.18 103.5,-46.18"/>
<text text-anchor="middle" x="103.5" y="-57.8" font-family="Times,serif" font-size="14.00">b</text>
</g>
<!-- [1,2]&#45;&gt;[1,2] -->
<g id="edge1" class="edge">
<title>[1,2]&#45;&gt;[1,2]</title>
<path fill="none" stroke="#e41a1c" d="M127.36,-108.93C137.55,-109.06 145.95,-107.75 145.95,-105 145.95,-103.28 142.67,-102.13 137.72,-101.53"/>
<polygon fill="#e41a1c" stroke="#e41a1c" points="137.51,-98.02 127.36,-101.07 137.19,-105.01 137.51,-98.02"/>
<text text-anchor="middle" x="149.45" y="-101.3" font-family="Times,serif" font-size="14.00">a</text>
</g>
<!-- [1,2]&#45;&gt;[1,2] -->
<g id="edge3" class="edge">
<title>[1,2]&#45;&gt;[1,2]</title>
<path fill="none" stroke="#377eb8" d="M125.94,-111.99C144.93,-114.34 163.95,-112.01 163.95,-105 163.95,-99.25 151.15,-96.65 136.07,-97.2"/>
<polygon fill="#377eb8" stroke="#377eb8" points="135.63,-93.72 125.94,-98.01 136.19,-100.7 135.63,-93.72"/>
<text text-anchor="middle" x="167.45" y="-101.3" font-family="Times,serif" font-size="14.00">b</text>
</g>
</g>
</svg>
