<?xml version="1.0" encoding="UTF-8" standalone="no"?>
<!DOCTYPE svg PUBLIC "-//W3C//DTD SVG 1.1//EN"
 "http://www.w3.org/Graphics/SVG/1.1/DTD/svg11.dtd">
<!-- Generated by graphviz version 2.49.2 (20211016.1639)
 -->
<!-- Title: G Pages: 1 -->
<svg width="524pt" height="154pt"
 viewBox="0.00 0.00 524.00 154.00" xmlns="http://www.w3.org/2000/svg" xmlns:xlink="http://www.w3.org/1999/xlink">
<g id="graph0" class="graph" transform="scale(1 1) rotate(0) translate(4 150)">
<title>G</title>
<polygon fill="white" stroke="transparent" points="-4,4 -4,-150 520,-150 520,4 -4,4"/>
<text text-anchor="middle" x="258" y="-7.8" font-family="Times,serif" font-size="14.00">K&lt;a&gt;(p1 ⋀ p2) ⋀ K&lt;b&gt;(p2 ⋀ p1) ⋀ K&lt;c&gt;(p3)</text>
<!-- [] -->
<g id="node1" class="node">
<title>[]</title>
<ellipse fill="#a6cee3" stroke="#a6cee3" cx="156" cy="-128" rx="27" ry="18"/>
<text text-anchor="middle" x="156" y="-124.3" font-family="Times,serif" font-size="14.00">[]</text>
</g>
<!-- [p3] -->
<g id="node2" class="node">
<title>[p3]</title>
<ellipse fill="#a6cee3" stroke="#a6cee3" cx="27" cy="-41" rx="27" ry="18"/>
<text text-anchor="middle" x="27" y="-37.3" font-family="Times,serif" font-size="14.00">[p3]</text>
</g>
<!-- [p3]&#45;&gt;[p3] -->
<g id="edge7" class="edge">
<title>[p3]&#45;&gt;[p3]</title>
<path fill="none" stroke="#4daf4a" d="M51.53,-48.75C62.51,-49.49 72,-46.91 72,-41 72,-37.03 67.72,-34.56 61.57,-33.59"/>
<polygon fill="#4daf4a" stroke="#4daf4a" points="61.65,-30.09 51.53,-33.25 61.41,-37.09 61.65,-30.09"/>
<text text-anchor="middle" x="75.5" y="-37.3" font-family="Times,serif" font-size="14.00">c</text>
</g>
<!-- [p2] -->
<g id="node3" class="node">
<title>[p2]</title>
<ellipse fill="#a6cee3" stroke="#a6cee3" cx="417" cy="-128" rx="27" ry="18"/>
<text text-anchor="middle" x="417" y="-124.3" font-family="Times,serif" font-size="14.00">[p2]</text>
</g>
<!-- [p2,p3] -->
<g id="node4" class="node">
<title>[p2,p3]</title>
<ellipse fill="#a6cee3" stroke="#a6cee3" cx="133" cy="-41" rx="36.29" ry="18"/>
<text text-anchor="middle" x="133" y="-37.3" font-family="Times,serif" font-size="14.00">[p2,p3]</text>
</g>
<!-- [p2,p3]&#45;&gt;[p2,p3] -->
<g id="edge8" class="edge">
<title>[p2,p3]&#45;&gt;[p2,p3]</title>
<path fill="none" stroke="#4daf4a" d="M165.93,-48.87C177.76,-49.04 187.4,-46.41 187.4,-41 187.4,-37.28 182.84,-34.88 176.15,-33.79"/>
<polygon fill="#4daf4a" stroke="#4daf4a" points="176.13,-30.28 165.93,-33.13 175.68,-37.27 176.13,-30.28"/>
<text text-anchor="middle" x="190.9" y="-37.3" font-family="Times,serif" font-size="14.00">c</text>
</g>
<!-- [p1] -->
<g id="node5" class="node">
<title>[p1]</title>
<ellipse fill="#a6cee3" stroke="#a6cee3" cx="489" cy="-128" rx="27" ry="18"/>
<text text-anchor="middle" x="489" y="-124.3" font-family="Times,serif" font-size="14.00">[p1]</text>
</g>
<!-- [p1,p3] -->
<g id="node6" class="node">
<title>[p1,p3]</title>
<ellipse fill="#a6cee3" stroke="#a6cee3" cx="249" cy="-41" rx="36.29" ry="18"/>
<text text-anchor="middle" x="249" y="-37.3" font-family="Times,serif" font-size="14.00">[p1,p3]</text>
</g>
<!-- [p1,p3]&#45;&gt;[p1,p3] -->
<g id="edge9" class="edge">
<title>[p1,p3]&#45;&gt;[p1,p3]</title>
<path fill="none" stroke="#4daf4a" d="M281.93,-48.87C293.76,-49.04 303.4,-46.41 303.4,-41 303.4,-37.28 298.84,-34.88 292.15,-33.79"/>
<polygon fill="#4daf4a" stroke="#4daf4a" points="292.13,-30.28 281.93,-33.13 291.68,-37.27 292.13,-30.28"/>
<text text-anchor="middle" x="306.9" y="-37.3" font-family="Times,serif" font-size="14.00">c</text>
</g>
<!-- [p1,p2] -->
<g id="node7" class="node">
<title>[p1,p2]</title>
<ellipse fill="#a6cee3" stroke="#a6cee3" cx="365" cy="-41" rx="36.29" ry="18"/>
<text text-anchor="middle" x="365" y="-37.3" font-family="Times,serif" font-size="14.00">[p1,p2]</text>
</g>
<!-- [p1,p2]&#45;&gt;[p1,p2] -->
<g id="edge1" class="edge">
<title>[p1,p2]&#45;&gt;[p1,p2]</title>
<path fill="none" stroke="#e41a1c" d="M400.58,-44.93C411.16,-44.81 419.4,-43.5 419.4,-41 419.4,-39.4 416.02,-38.28 410.8,-37.66"/>
<polygon fill="#e41a1c" stroke="#e41a1c" points="410.76,-34.15 400.58,-37.07 410.36,-41.14 410.76,-34.15"/>
<text text-anchor="middle" x="422.9" y="-37.3" font-family="Times,serif" font-size="14.00">a</text>
</g>
<!-- [p1,p2]&#45;&gt;[p1,p2] -->
<g id="edge4" class="edge">
<title>[p1,p2]&#45;&gt;[p1,p2]</title>
<path fill="none" stroke="#377eb8" d="M398.51,-48.38C418.54,-50.02 437.4,-47.56 437.4,-41 437.4,-35.57 424.47,-32.94 408.65,-33.13"/>
<polygon fill="#377eb8" stroke="#377eb8" points="408.33,-29.65 398.51,-33.62 408.67,-36.64 408.33,-29.65"/>
<text text-anchor="middle" x="440.9" y="-37.3" font-family="Times,serif" font-size="14.00">b</text>
</g>
<!-- [p1,p2,p3] -->
<g id="node8" class="node">
<title>[p1,p2,p3]</title>
<ellipse fill="#a6cee3" stroke="#a6cee3" cx="249" cy="-128" rx="48.19" ry="18"/>
<text text-anchor="middle" x="249" y="-124.3" font-family="Times,serif" font-size="14.00">[p1,p2,p3]</text>
</g>
<!-- [p1,p2,p3]&#45;&gt;[p3] -->
<g id="edge11" class="edge">
<title>[p1,p2,p3]&#45;&gt;[p3]</title>
<path fill="none" stroke="#4daf4a" d="M216.72,-114.64C174.64,-98.53 101.45,-70.51 59.34,-54.38"/>
<polygon fill="#4daf4a" stroke="#4daf4a" points="60.43,-51.05 49.84,-50.75 57.93,-57.59 60.43,-51.05"/>
<text text-anchor="middle" x="155.5" y="-80.8" font-family="Times,serif" font-size="14.00">c</text>
</g>
<!-- [p1,p2,p3]&#45;&gt;[p2,p3] -->
<g id="edge12" class="edge">
<title>[p1,p2,p3]&#45;&gt;[p2,p3]</title>
<path fill="none" stroke="#4daf4a" d="M227.99,-111.61C209.17,-97.82 181.43,-77.49 160.78,-62.36"/>
<polygon fill="#4daf4a" stroke="#4daf4a" points="162.83,-59.52 152.69,-56.43 158.69,-65.16 162.83,-59.52"/>
<text text-anchor="middle" x="201.5" y="-80.8" font-family="Times,serif" font-size="14.00">c</text>
</g>
<!-- [p1,p2,p3]&#45;&gt;[p1,p3] -->
<g id="edge13" class="edge">
<title>[p1,p2,p3]&#45;&gt;[p1,p3]</title>
<path fill="none" stroke="#4daf4a" d="M249,-109.8C249,-98.16 249,-82.55 249,-69.24"/>
<polygon fill="#4daf4a" stroke="#4daf4a" points="252.5,-69.18 249,-59.18 245.5,-69.18 252.5,-69.18"/>
<text text-anchor="middle" x="252.5" y="-80.8" font-family="Times,serif" font-size="14.00">c</text>
</g>
<!-- [p1,p2,p3]&#45;&gt;[p1,p2] -->
<g id="edge3" class="edge">
<title>[p1,p2,p3]&#45;&gt;[p1,p2]</title>
<path fill="none" stroke="#e41a1c" d="M270.01,-111.61C288.83,-97.82 316.57,-77.49 337.22,-62.36"/>
<polygon fill="#e41a1c" stroke="#e41a1c" points="339.31,-65.16 345.31,-56.43 335.17,-59.52 339.31,-65.16"/>
<text text-anchor="middle" x="317.5" y="-80.8" font-family="Times,serif" font-size="14.00">a</text>
</g>
<!-- [p1,p2,p3]&#45;&gt;[p1,p2] -->
<g id="edge6" class="edge">
<title>[p1,p2,p3]&#45;&gt;[p1,p2]</title>
<path fill="none" stroke="#377eb8" d="M283.06,-115.28C296.9,-109.55 312.53,-101.76 325,-92 334.02,-84.94 342.27,-75.46 348.89,-66.66"/>
<polygon fill="#377eb8" stroke="#377eb8" points="351.74,-68.69 354.72,-58.52 346.05,-64.61 351.74,-68.69"/>
<text text-anchor="middle" x="343.5" y="-80.8" font-family="Times,serif" font-size="14.00">b</text>
</g>
<!-- [p1,p2,p3]&#45;&gt;[p1,p2,p3] -->
<g id="edge2" class="edge">
<title>[p1,p2,p3]&#45;&gt;[p1,p2,p3]</title>
<path fill="none" stroke="#e41a1c" d="M296.83,-130.55C307.4,-130.31 315.1,-129.46 315.1,-128 315.1,-127.06 311.94,-126.38 306.89,-125.94"/>
<polygon fill="#e41a1c" stroke="#e41a1c" points="306.99,-122.44 296.83,-125.45 306.64,-129.43 306.99,-122.44"/>
<text text-anchor="middle" x="318.6" y="-124.3" font-family="Times,serif" font-size="14.00">a</text>
</g>
<!-- [p1,p2,p3]&#45;&gt;[p1,p2,p3] -->
<g id="edge5" class="edge">
<title>[p1,p2,p3]&#45;&gt;[p1,p2,p3]</title>
<path fill="none" stroke="#377eb8" d="M295.27,-133.18C315.6,-133.64 333.1,-131.91 333.1,-128 333.1,-124.76 321.1,-123.02 305.43,-122.78"/>
<polygon fill="#377eb8" stroke="#377eb8" points="305.26,-119.28 295.27,-122.82 305.29,-126.28 305.26,-119.28"/>
<text text-anchor="middle" x="336.6" y="-124.3" font-family="Times,serif" font-size="14.00">b</text>
</g>
<!-- [p1,p2,p3]&#45;&gt;[p1,p2,p3] -->
<g id="edge10" class="edge">
<title>[p1,p2,p3]&#45;&gt;[p1,p2,p3]</title>
<path fill="none" stroke="#4daf4a" d="M293.34,-135.2C322.65,-137.19 351.1,-134.79 351.1,-128 351.1,-122.01 328.93,-119.43 303.56,-120.28"/>
<polygon fill="#4daf4a" stroke="#4daf4a" points="303.15,-116.8 293.34,-120.8 303.51,-123.79 303.15,-116.8"/>
<text text-anchor="middle" x="354.6" y="-124.3" font-family="Times,serif" font-size="14.00">c</text>
</g>
</g>
</svg>
